<?xml version="1.0" encoding="UTF-8" standalone="no"?>
<!-- Generator: Adobe Illustrator 26.0.1, SVG Export Plug-In . SVG Version: 6.00 Build 0)  -->

<svg
   version="1.1"
   id="Layer_1"
   x="0px"
   y="0px"
   viewBox="0 0 498.00146 92.632751"
   xml:space="preserve"
   sodipodi:docname="numfocus.svg"
   width="498.00146"
   height="92.632751"
   inkscape:version="1.3.2 (091e20ef0f, 2023-11-25)"
   xmlns:inkscape="http://www.inkscape.org/namespaces/inkscape"
   xmlns:sodipodi="http://sodipodi.sourceforge.net/DTD/sodipodi-0.dtd"
   xmlns="http://www.w3.org/2000/svg"
   xmlns:svg="http://www.w3.org/2000/svg"><defs
   id="defs128">
	
	
	
	
	
	
	
	
	
	
	
	
	
	
	
	
	
	
	
	
	
	
	
	
	
	
	
	
	
	
	
	
	
	
	
	
	
</defs><sodipodi:namedview
   id="namedview128"
   pagecolor="#ffffff"
   bordercolor="#000000"
   borderopacity="0.25"
   inkscape:showpageshadow="2"
   inkscape:pageopacity="0.0"
   inkscape:pagecheckerboard="0"
   inkscape:deskcolor="#d1d1d1"
   inkscape:zoom="0.786"
   inkscape:cx="249.36387"
   inkscape:cy="-171.75573"
   inkscape:window-width="1920"
   inkscape:window-height="1014"
   inkscape:window-x="151"
   inkscape:window-y="29"
   inkscape:window-maximized="1"
   inkscape:current-layer="Layer_1" />

<g
   id="g92"
   transform="translate(-250.9994,-429.72391)">
</g>
<path
   style="fill:#077e8a"
   d="m 264.5086,34.464092 c 0,8.839 0.083,17.689 -0.042,26.528 -0.042,2.267 0.385,3.276 2.932,3.078 2.298,-0.166 5.574,-0.863 5.48,2.922 -0.094,3.775 -3.421,2.704 -5.678,2.745 -9.38,0.187 -8.517,0.198 -8.496,-8.455 0.01,-5.002 0,-10.014 0,-15.027 0,-6.385 0.083,-12.781 -0.031,-19.176 -0.052,-2.964 1.04,-4.368 4.108,-4.232 2.454,0.125 4.908,0.031 7.373,0.042 1.83,0 2.818,0.967 2.787,2.745 -0.021,1.768 -0.998,2.6 -2.839,2.725 -5.594,0.406 -5.594,0.458 -5.594,6.105 z"
   id="path92" /><path
   style="fill:#077e8a"
   d="m 308.9136,46.340092 c 0,6.385 0.021,12.781 -0.01,19.166 -0.021,3.619 -0.666,4.222 -4.368,4.253 -2.236,0.021 -4.482,0.01 -6.728,0 -1.862,0 -3.172,-0.832 -3.182,-2.766 -0.021,-2.08 1.3,-2.912 3.328,-3.005 5.075,-0.229 5.075,-0.281 5.075,-5.252 0,-9.058 -0.104,-18.116 0.062,-27.163 0.052,-2.724 -0.811,-3.64 -3.411,-3.255 -0.842,0.125 -1.716,0.062 -2.569,-0.01 -1.653,-0.135 -2.496,-1.175 -2.496,-2.745 0,-1.445 0.853,-2.537 2.309,-2.589 3.203,-0.125 6.416,-0.177 9.599,0.021 1.997,0.135 2.402,1.768 2.392,3.536 -0.022,6.602 -0.012,13.206 -0.001,19.809 z"
   id="path93" /><path
   style="fill:#077e8a"
   d="m 285.8796,0.0120916 c -26.58,-0.572 -47.92,19.2180004 -48.429,44.9250004 -0.52,26.164 19.478,46.994 45.767,47.68 25.416,0.666 46.474,-19.998 47.015,-46.141 0.498,-24.439 -20.019,-45.9440004 -44.353,-46.4640004 z m -1.987,84.6180004 c -21.298,0 -38.56,-17.138 -38.571,-38.3 0,-21.173 17.273,-38.4670004 38.456,-38.4980004 21.183,-0.021 38.529,17.2420004 38.571,38.3830004 0.032,21.163 -17.231,38.405 -38.456,38.415 z"
   id="path94" /><path
   style="fill:#077e8a"
   d="m 402.4046,37.411092 c 0,9.598 -0.039,19.197 0.015,28.795 0.031,5.481 1.343,10.575 6.715,13.18 5.925,2.874 12.116,2.798 17.755,-0.76 4.872,-3.075 5.659,-8.299 5.676,-13.543 0.062,-18.77 0.024,-37.541 0.025,-56.3110004 0,-4.284 0.001,-4.284 4.169,-4.285 5.506,-0.001 5.506,-0.001 5.506,5.499 0,18.3440004 0.018,36.6870004 -0.011,55.0310004 -0.009,5.502 -0.949,10.798 -3.875,15.605 -2.309,3.793 -5.584,6.464 -9.676,8.026 -5.951,2.271 -12.178,2.54 -18.314,1.194 -11.318,-2.484 -17.309,-10.172 -17.553,-22.677 -0.25,-12.793 -0.09,-25.594 -0.103,-38.392 -0.007,-7.252 0.053,-14.505 -0.037,-21.7560004 -0.023,-1.865 0.378,-2.57 2.45,-2.588 7.247,-0.063 7.246,-0.155 7.246,7.0650004 0,8.639 0,17.277 0,25.916 0.002,10e-4 0.007,10e-4 0.012,10e-4 z"
   id="path95" /><path
   style="fill:#e2533d"
   d="m 148.8196,51.618092 c 2.7,-5.507 5.224,-10.625 7.723,-15.756 4.801,-9.856 9.707,-19.665 14.3,-29.6170004 1.237,-2.681 3.105,-2.143 5.005,-1.958 2.301,0.225 1.224,2.162 1.227,3.276 0.066,26.5490004 0.031,53.0990004 0.089,79.6480004 0.005,2.137 -0.179,3.251 -2.843,3.202 -2.517,-0.046 -3.205,-0.707 -3.193,-3.222 0.099,-21.218 0.056,-42.436 0.056,-63.655 0,-1.03 0,-2.06 0,-3.089 -0.224,-0.077 -0.447,-0.154 -0.671,-0.232 -7.133,14.378 -14.266,28.757 -21.731,43.805 -7.438,-15.003 -14.562,-29.373 -21.686,-43.742 -0.205,0.051 -0.41,0.103 -0.614,0.154 0,1.222 0,2.443 0,3.665 0,21.005 -0.034,42.01 0.047,63.015 0.009,2.37 -0.43,3.278 -3.093,3.312 -2.83,0.036 -3.007,-1.181 -3.002,-3.405 0.054,-26.443 0.021,-52.886 0.08,-79.3290004 0.003,-1.163 -0.98,-3.06 1.182,-3.388 2.103,-0.319 4.003,-0.339 5.241,2.279 6.782,14.3350004 13.765,28.5760004 20.684,42.8470004 0.273,0.563 0.6,1.099 1.199,2.19 z"
   id="path96" /><path
   style="fill:#077e8a"
   d="m 472.5146,90.509092 c -7.243,0.007 -13.98,-1.504 -19.794,-6.115 -2.308,-1.83 -2.935,-3.513 -0.122,-5.378 0.262,-0.174 0.494,-0.418 0.687,-0.669 1.96,-2.553 3.529,-3.067 6.449,-0.535 5.084,4.407 16.405,4.566 22.226,1.083 8.252,-4.936 8.082,-19.714 -0.292,-25.603 -3.722,-2.618 -8.064,-3.838 -12.253,-5.401 -3.9,-1.455 -7.811,-2.875 -11.213,-5.369 -7.415,-5.436 -8.751,-13.091 -7.454,-21.416 1.292,-8.293 6.503,-13.5420004 14.454,-15.8300004 8.367,-2.407 16.726,-1.733 24.857,1.28 3.996,1.48 4.064,1.956 1.736,5.5580004 -2.771,4.288 -2.795,4.354 -7.516,2.692 -4.562,-1.606 -9.235,-1.756 -13.934,-1.159 -5.553,0.706 -9.381,4.123 -10.169,8.752 -1.061,6.231 0.91,10.569 6.15,13.468 4.508,2.494 9.508,3.773 14.259,5.67 15.868,6.333 22.042,23.303 13.691,38.198 -4.744,8.459 -12.753,10.705 -21.762,10.774 z"
   id="path97" /><path
   style="fill:#077e8b"
   d="m 337.0436,47.163092 c 0,-5.332 0.172,-10.67 -0.03,-15.994 -0.886,-23.3810004 16.481,-30.1620004 33.159,-26.0360004 8.319,2.058 13.915,7.2120004 15.82,15.7880004 0.956,4.306 0.659,4.59 -3.568,4.617 -0.535,0.004 -1.078,-0.047 -1.603,0.028 -2.784,0.401 -4.554,-0.193 -4.86,-3.534 -0.229,-2.492 -1.842,-4.596 -3.992,-5.944 -5.69,-3.567 -11.8,-3.531 -17.843,-1.237 -5.422,2.058 -7.263,6.928 -7.361,12.103 -0.26,13.643 -0.255,27.297 0.01,40.94 0.098,5.077 1.997,9.861 7.271,11.836 6.121,2.292 12.388,2.52 18.144,-1.234 2.55,-1.664 3.587,-4.448 3.978,-7.387 0.254,-1.913 1.069,-2.895 3.12,-2.532 0.518,0.092 1.067,0.014 1.602,0.014 5.887,-0.001 6.576,0.848 4.764,6.606 -2.454,7.796 -8.001,12.413 -15.798,14.328 -6.79,1.668 -13.613,1.632 -20.096,-1.272 -8.71,-3.902 -12.131,-11.364 -12.583,-20.302 -0.349,-6.913 -0.07,-13.858 -0.07,-20.789 -0.022,10e-4 -0.043,10e-4 -0.064,10e-4 z"
   id="path98" /><path
   style="fill:#e2533d"
   d="m 40.039603,73.382092 c 0,-22.07 -0.022,-43.605 0.04,-65.1390004 0.005,-1.783 -1.314,-4.426 2.605,-4.395 2.769,0.022 3.577,0.633 3.564,3.517 -0.123,26.5590004 -0.058,53.1190004 -0.124,79.6790004 -0.003,1.106 1.075,2.989 -1.318,3.243 -1.784,0.19 -3.022,-0.049 -4.008,-2.084 -10.633,-21.949 -21.422,-43.823 -32.1719996,-65.716 -0.561,-1.143 -1.164,-2.267 -1.923,-3.743 -0.785,1.391 -0.481,2.639 -0.48,3.789 0.032,21.332 0.095,42.664 0.15,63.997 0.011,4.159 -0.114,4.211 -4.355,3.812 -1.219,-0.115 -1.718,-0.505 -1.702,-1.708 0.018,-1.385 -0.092,-2.771 -0.092,-4.157 -0.006,-25.493 -0.026,-50.987 0.056,-76.4790004 0.004,-1.318 -1.197,-3.444 1.34,-3.933 2.306,-0.444 3.848,0.244 5.034,2.652 C 17.150603,28.025092 27.805603,49.256092 38.420603,70.505092 c 0.42,0.839 0.92,1.639 1.619,2.877 z"
   id="path99" /><path
   style="fill:#077e8b"
   d="m 195.4006,46.983092 c 0,-13.33 0.048,-26.661 -0.046,-39.9910004 -0.016,-2.274 0.444,-3.131 2.971,-3.104 12.942,0.137 25.886,0.107 38.828,0.019 2.1,-0.014 2.986,0.32 2.958,2.72 -0.081,6.8190004 0.04,6.8210004 -6.811,6.8210004 -8.344,0 -16.688,0.071 -25.03,-0.047 -2.239,-0.032 -3.196,0.337 -3.136,2.902 0.182,7.781 0.132,15.569 0.022,23.353 -0.029,2.056 0.515,2.767 2.66,2.7 4.916,-0.153 9.841,0.013 14.759,-0.081 1.68,-0.032 2.145,0.518 2.208,2.175 0.262,6.945 0.321,6.942 -6.692,6.942 -3.423,0 -6.852,0.126 -10.267,-0.045 -2.183,-0.11 -2.684,0.698 -2.668,2.745 0.088,11.09 -0.033,22.182 0.1,33.272 0.029,2.427 -0.659,3.045 -3.05,3.005 -6.807,-0.112 -6.809,0.001 -6.809,-6.915 0.003,-12.157 0.003,-24.314 0.003,-36.471 z"
   id="path100" /><path
   style="fill:#e2533d"
   d="m 106.1356,38.881092 c 0,9.701 0.055,19.402 -0.012,29.102 -0.126,18.11 -13.326997,24.42 -28.367997,21.921 -10.821,-1.798 -17.16,-9.18 -17.306,-20.226 -0.279,-21.106 -0.059,-42.218 -0.15,-63.3270004 -0.013,-3.033 2.086,-1.945 3.512,-2.213 2.045,-0.384 2.478,0.674 2.472,2.544 -0.055,18.8700004 -0.041,37.7410004 -0.022,56.6110004 0.002,1.916 0.128,3.833 0.255,5.746 0.892,13.369 10.958,17.092 21.391,15.047 8.01,-1.57 12.197997,-7.317 12.259997,-16.349 0.097,-14.179 0.03,-28.359 0.032,-42.538 10e-4,-6.077 0.139,-12.159 -0.065,-18.2290004 -0.088,-2.63 1.035,-2.911 3.208,-2.923 2.158,-0.011 2.986,0.525 2.961,2.849 -0.115,10.6600004 -0.05,21.3220004 -0.05,31.9830004 -0.039,0.002 -0.079,0.002 -0.118,0.002 z"
   id="path101" /><path
   style="fill:#fefefe"
   d="m 264.5086,34.464092 c 0,8.839 0.083,17.689 -0.042,26.528 -0.042,2.267 0.385,3.276 2.932,3.078 2.298,-0.166 5.574,-0.863 5.48,2.922 -0.094,3.775 -3.421,2.704 -5.678,2.745 -9.38,0.187 -8.517,0.198 -8.496,-8.455 0.01,-5.002 0,-10.014 0,-15.027 0,-6.385 0.083,-12.781 -0.031,-19.176 -0.052,-2.964 1.04,-4.368 4.108,-4.232 2.454,0.125 4.908,0.031 7.373,0.042 1.83,0 2.818,0.967 2.787,2.745 -0.021,1.768 -0.998,2.6 -2.839,2.725 -5.594,0.406 -5.594,0.458 -5.594,6.105 z"
   id="path125" /><path
   style="fill:#fefefe"
   d="m 308.9026,65.506092 c -0.021,3.619 -0.666,4.222 -4.368,4.253 -2.236,0.021 -4.482,0.01 -6.728,0 -1.862,0 -3.172,-0.832 -3.182,-2.766 -0.021,-2.08 1.3,-2.912 3.328,-3.005 5.075,-0.229 5.075,-0.281 5.075,-5.252 0,-9.058 -0.104,-18.116 0.062,-27.163 0.052,-2.724 -0.811,-3.64 -3.411,-3.255 -0.842,0.125 -1.716,0.062 -2.569,-0.01 -1.653,-0.135 -2.496,-1.175 -2.496,-2.745 0,-1.445 0.853,-2.537 2.309,-2.589 3.203,-0.125 6.416,-0.177 9.599,0.021 1.997,0.135 2.402,1.768 2.392,3.536 -0.021,6.603 -0.01,13.207 0,19.81 0,6.384 0.021,12.78 -0.011,19.165 z"
   id="path126" /><path
   style="fill:#e2533d"
   d="m 272.8806,66.993092 c -0.094,3.775 -3.421,2.704 -5.678,2.745 -9.38,0.187 -8.517,0.198 -8.496,-8.455 0.01,-5.002 0,-10.014 0,-15.027 0,-6.385 0.083,-12.781 -0.031,-19.176 -0.052,-2.964 1.04,-4.368 4.108,-4.232 2.454,0.125 4.908,0.031 7.373,0.042 1.83,0 2.818,0.967 2.787,2.745 -0.021,1.768 -0.998,2.6 -2.839,2.725 -5.595,0.405 -5.595,0.458 -5.595,6.104 0,8.839 0.083,17.689 -0.042,26.528 -0.042,2.267 0.385,3.276 2.932,3.078 2.298,-0.166 5.574,-0.862 5.481,2.923 z"
   id="path127" /><path
   style="fill:#e2533d"
   d="m 308.9026,65.506092 c -0.021,3.619 -0.666,4.222 -4.368,4.253 -2.236,0.021 -4.482,0.01 -6.728,0 -1.862,0 -3.172,-0.832 -3.182,-2.766 -0.021,-2.08 1.3,-2.912 3.328,-3.005 5.075,-0.229 5.075,-0.281 5.075,-5.252 0,-9.058 -0.104,-18.116 0.062,-27.163 0.052,-2.724 -0.811,-3.64 -3.411,-3.255 -0.842,0.125 -1.716,0.062 -2.569,-0.01 -1.653,-0.135 -2.496,-1.175 -2.496,-2.745 0,-1.445 0.853,-2.537 2.309,-2.589 3.203,-0.125 6.416,-0.177 9.599,0.021 1.997,0.135 2.402,1.768 2.392,3.536 -0.021,6.603 -0.01,13.207 0,19.81 0,6.384 0.021,12.78 -0.011,19.165 z"
   id="path128" />
</svg>
